<svg viewBox="0 0 512 512" xmlns="http://www.w3.org/2000/svg"><path d="m146.605469 125.394531 94.4375 94.433594-21.210938 21.210937-94.4375-94.4375zm0 0" fill="#fdbf00"/><path d="m219.832031 270.953125 21.210938 21.210937-94.4375 94.4375-21.210938-21.210937zm0 0" fill="#fdbf00"/><g fill="#ff9f00"><path d="m292.167969 270.953125 94.4375 94.4375-21.210938 21.210937-94.4375-94.4375zm0 0"/><path d="m365.394531 125.390625 21.210938 21.210937-94.4375 94.4375-21.210938-21.210937zm0 0"/><path d="m421 61h30v30h-30zm0 0"/></g><path d="m61 421h30v30h-30zm0 0" fill="#fdbf00"/><path d="m294.402344 217.597656-38.402344-217.597656-38.402344 217.597656-217.597656 38.402344 217.597656 38.398438 38.402344 217.601562 38.402344-217.601562 217.597656-38.398438zm0 0" fill="#ffd400"/><path d="m512 256-217.597656 38.398438-38.402344 217.601562v-512l38.402344 217.597656zm0 0" fill="#fdbf00"/></svg>